<?xml version="1.0" standalone="no"?>
<!DOCTYPE svg PUBLIC "-//W3C//DTD SVG 20010904//EN"
 "http://www.w3.org/TR/2001/REC-SVG-20010904/DTD/svg10.dtd">
<svg version="1.0" xmlns="http://www.w3.org/2000/svg"
 width="500.000000pt" height="500.000000pt" viewBox="0 0 500.000000 500.000000"
 preserveAspectRatio="xMidYMid meet">
<metadata>
Created by potrace 1.16, written by Peter Selinger 2001-2019
</metadata>
<g transform="translate(0.000000,500.000000) scale(0.100000,-0.100000)"
fill="#000000" stroke="none">
<path d="M1114 3820 c45 -54 49 -85 53 -432 6 -398 -4 -484 -62 -542 -15 -15
17 -16 383 -16 l399 0 6 107 c4 58 7 126 7 151 l0 45 -30 -45 c-62 -94 -148
-128 -322 -128 l-108 0 0 373 c0 401 4 443 51 493 l22 24 -212 0 -213 0 26
-30z"/>
<path d="M3946 3709 c-74 -11 -167 -54 -225 -105 -149 -129 -194 -356 -108
-535 95 -197 306 -297 512 -243 219 56 364 283 327 507 -42 248 -262 411 -506
376z m165 -168 c105 -109 127 -327 48 -488 -66 -136 -168 -160 -254 -60 -100
117 -112 349 -26 502 37 65 80 95 139 95 41 0 50 -4 93 -49z"/>
<path d="M375 3664 c13 -20 28 -52 32 -73 11 -48 10 -593 0 -653 -5 -27 -19
-61 -33 -78 l-26 -30 335 0 334 0 6 83 c4 45 7 101 7 125 l0 44 -33 -43 c-18
-24 -54 -54 -82 -68 -43 -22 -65 -26 -162 -30 l-113 -3 0 131 0 131 26 0 c45
0 105 -22 135 -51 l29 -27 0 141 0 140 -22 -20 c-32 -29 -76 -50 -125 -58
l-43 -7 0 131 0 131 99 0 c89 0 104 -3 152 -28 37 -19 64 -43 87 -76 l32 -49
-5 104 c-4 57 -8 119 -11 137 l-5 32 -319 0 -319 0 24 -36z"/>
<path d="M2003 3682 c42 -46 47 -90 47 -421 -1 -329 -5 -367 -46 -412 -17 -19
-13 -19 319 -19 l337 0 0 48 c0 26 3 85 6 132 l7 85 -30 -43 c-57 -84 -125
-112 -270 -112 l-93 0 0 131 0 132 46 -7 c55 -7 118 -41 132 -70 8 -15 11 20
11 133 l1 154 -20 -25 c-21 -27 -72 -51 -132 -62 l-38 -7 0 131 0 130 88 0
c136 0 197 -26 248 -107 15 -24 28 -43 29 -43 2 0 -4 105 -11 198 l-6 72 -320
0 c-309 0 -320 -1 -305 -18z"/>
<path d="M2758 3656 c22 -24 48 -58 57 -76 14 -26 265 -734 265 -746 0 -2 35
-4 78 -4 l77 0 119 343 c131 376 158 439 212 491 l37 36 -128 0 c-118 0 -127
-1 -119 -17 23 -47 7 -128 -66 -348 l-73 -220 -75 225 c-76 231 -90 311 -63
344 12 15 -3 16 -174 16 l-188 0 41 -44z"/>
<path d="M3547 2753 c-4 -3 -7 -20 -7 -36 0 -25 -2 -28 -15 -17 -12 10 -20 9
-39 -4 -19 -12 -26 -28 -32 -72 -8 -68 1 -181 16 -200 7 -7 32 -13 61 -12 l49
0 0 174 c0 138 -3 174 -13 174 -8 0 -17 -3 -20 -7z"/>
<path d="M510 2725 c0 -16 -6 -25 -15 -25 -8 0 -15 -7 -15 -15 0 -8 7 -15 15
-15 12 0 15 -23 17 -127 l3 -128 33 -3 c24 -2 32 1 32 12 0 9 -7 16 -15 16
-12 0 -15 19 -15 115 0 96 3 115 15 115 8 0 15 7 15 15 0 8 -7 15 -15 15 -9 0
-15 9 -15 25 0 18 -5 25 -20 25 -15 0 -20 -7 -20 -25z"/>
<path d="M930 2725 c0 -14 -4 -25 -10 -25 -5 0 -10 -7 -10 -15 0 -8 5 -15 10
-15 6 0 10 -46 10 -118 0 -128 5 -142 52 -142 33 0 39 25 8 33 -18 5 -20 14
-20 116 0 92 3 111 15 111 8 0 15 7 15 15 0 8 -7 15 -15 15 -9 0 -15 9 -15 25
0 18 -5 25 -20 25 -15 0 -20 -7 -20 -25z"/>
<path d="M363 2700 c-47 -19 -42 -89 11 -148 37 -41 50 -71 40 -96 -13 -35
-44 -11 -44 35 0 13 -7 19 -21 19 -19 0 -21 -4 -16 -36 8 -49 23 -64 63 -64
25 0 38 7 50 25 23 36 12 78 -36 133 -43 49 -51 94 -18 100 12 2 17 -5 20 -30
2 -22 9 -34 21 -36 13 -3 17 4 17 30 0 56 -39 87 -87 68z"/>
<path d="M782 2700 c-38 -16 -57 -90 -23 -90 13 0 20 10 25 31 8 42 40 36 44
-8 3 -28 -1 -34 -36 -52 -22 -11 -42 -27 -46 -36 -10 -26 -7 -94 4 -116 12
-21 50 -25 68 -7 9 9 12 9 12 0 0 -7 9 -12 21 -12 20 0 20 4 17 135 -2 74 -7
138 -13 143 -17 16 -49 21 -73 12z"/>
<path d="M1065 2686 c-23 -24 -25 -31 -25 -128 0 -122 11 -148 64 -148 41 0
52 12 61 68 6 38 5 42 -14 42 -16 0 -21 -6 -21 -27 0 -37 -14 -57 -34 -50 -12
5 -16 20 -16 56 l0 50 43 3 42 3 -1 58 c-1 61 -12 80 -51 92 -17 4 -29 -1 -48
-19z"/>
<path d="M1236 2689 c-19 -15 -21 -28 -21 -117 0 -113 10 -136 57 -130 25 4
29 2 26 -16 -2 -17 -10 -21 -41 -20 -30 1 -37 -2 -35 -15 2 -11 16 -17 44 -19
69 -5 74 6 74 178 l0 148 -41 4 c-29 3 -48 -1 -63 -13z"/>
<path d="M1533 2700 c-31 -13 -46 -78 -40 -171 6 -98 17 -119 62 -119 41 0 65
29 65 77 0 26 -4 33 -19 33 -16 0 -20 -8 -23 -37 -2 -25 -8 -39 -19 -41 -21
-4 -29 25 -29 113 0 39 3 80 6 93 10 35 38 23 44 -18 3 -23 11 -36 23 -38 14
-3 17 4 17 35 0 61 -38 92 -87 73z"/>
<path d="M1802 2700 c-32 -13 -42 -49 -42 -148 0 -108 12 -136 61 -140 43 -4
59 12 66 68 5 36 3 40 -16 40 -17 0 -21 -6 -21 -35 0 -23 -6 -38 -16 -42 -26
-10 -34 16 -34 112 0 96 8 122 34 112 11 -4 16 -19 16 -42 0 -29 3 -36 18 -33
9 2 18 14 20 27 4 25 -16 81 -28 81 -5 0 -14 2 -22 4 -7 3 -23 1 -36 -4z"/>
<path d="M1973 2700 c-13 -6 -26 -23 -32 -47 -21 -74 -8 -216 21 -234 21 -14
65 -10 82 7 21 20 23 231 4 256 -17 21 -48 29 -75 18z"/>
<path d="M2387 2703 c-4 -3 -23 -6 -42 -5 l-35 1 0 -144 c0 -138 1 -145 20
-145 18 0 20 8 22 128 3 119 4 127 23 127 19 0 20 -8 23 -127 2 -120 4 -128
23 -128 19 0 19 6 17 136 -3 126 -5 138 -24 150 -11 8 -24 11 -27 7z"/>
<path d="M2505 2686 c-38 -38 -29 -82 31 -148 38 -43 44 -90 12 -96 -12 -2
-19 6 -24 32 -5 27 -11 36 -26 36 -17 0 -19 -4 -13 -32 12 -55 23 -68 59 -68
39 0 66 26 66 64 0 34 -14 61 -56 109 -37 40 -44 74 -18 84 19 7 34 -13 34
-45 0 -17 5 -23 18 -20 13 3 16 11 14 38 -6 63 -56 87 -97 46z"/>
<path d="M2690 2703 c-33 -12 -40 -36 -40 -149 0 -127 8 -144 65 -144 40 0 55
20 55 74 0 29 -4 36 -20 36 -17 0 -20 -7 -20 -41 0 -33 -3 -40 -17 -37 -14 2
-19 15 -21 56 l-3 52 40 0 41 0 0 58 c0 32 -6 65 -12 74 -15 19 -47 28 -68 21z"/>
<path d="M3310 2697 c-19 -9 -26 -22 -28 -50 -3 -32 0 -37 17 -37 17 0 21 6
21 30 0 23 4 30 20 30 17 0 20 -7 20 -40 0 -30 -4 -40 -16 -40 -8 0 -29 -13
-45 -29 -22 -22 -29 -39 -29 -68 0 -61 21 -82 80 -81 l50 0 0 127 c0 133 -6
153 -45 165 -11 3 -31 0 -45 -7z"/>
<path d="M3909 2696 c-19 -9 -25 -20 -27 -56 -2 -40 2 -50 38 -90 32 -35 40
-51 38 -75 -4 -42 -32 -40 -36 3 -2 24 -8 32 -23 32 -15 0 -19 -7 -19 -34 0
-44 22 -66 65 -66 68 0 77 82 16 151 -43 49 -55 77 -42 98 15 23 41 5 41 -29
0 -23 4 -30 20 -30 38 0 16 85 -26 101 -12 4 -31 2 -45 -5z"/>
<path d="M4080 2703 c-33 -12 -40 -36 -40 -148 0 -96 3 -114 18 -128 24 -22
76 -22 93 0 21 24 20 237 -1 257 -19 17 -50 26 -70 19z"/>
<path d="M2110 2583 c0 -75 5 -127 13 -143 14 -28 51 -38 73 -20 10 9 14 9 14
1 0 -6 9 -11 20 -11 19 0 20 7 20 145 0 138 -1 145 -20 145 -19 0 -20 -7 -20
-119 0 -97 -3 -121 -16 -132 -31 -26 -44 13 -44 138 0 106 -1 113 -20 113 -19
0 -20 -7 -20 -117z"/>
<path d="M3625 2668 c9 -54 35 -237 35 -248 0 -11 50 -14 50 -2 0 4 9 66 20
137 24 159 24 145 1 145 -16 0 -20 -11 -26 -78 -4 -43 -10 -94 -14 -113 -6
-30 -8 -24 -14 41 -13 132 -18 150 -39 150 -16 0 -18 -5 -13 -32z"/>
<path d="M4330 2693 c0 -5 11 -71 24 -148 13 -77 22 -143 19 -147 -2 -5 -11
-8 -19 -8 -8 0 -14 -7 -14 -15 0 -10 10 -15 30 -15 23 0 33 6 39 23 13 36 55
307 48 313 -3 4 -13 4 -20 1 -10 -4 -17 -30 -21 -79 -4 -40 -11 -89 -16 -108
-8 -35 -8 -35 -9 -5 -1 17 -6 67 -13 113 -9 69 -14 82 -30 82 -10 0 -18 -3
-18 -7z"/>
</g>
</svg>
